<svg width="36" height="36" viewBox="0 0 36 36" fill="none" xmlns="http://www.w3.org/2000/svg">
<rect width="36" height="36" rx="18" fill="#7541EA"/>
<path fill-rule="evenodd" clip-rule="evenodd" d="M12 10C12.5523 10 13 10.4477 13 11V13.1013C14.2701 11.8049 16.0405 11 18 11C21.0494 11 23.641 12.9493 24.6014 15.6668C24.7855 16.1875 24.5126 16.7588 23.9918 16.9428C23.4711 17.1269 22.8998 16.854 22.7157 16.3332C22.0289 14.3899 20.1755 13 18 13C16.3651 13 14.912 13.785 13.9994 15H17C17.5523 15 18 15.4477 18 16C18 16.5523 17.5523 17 17 17H12C11.4477 17 11 16.5523 11 16V11C11 10.4477 11.4477 10 12 10ZM12.0082 19.0572C12.5289 18.8731 13.1002 19.146 13.2843 19.6668C13.9711 21.6101 15.8245 23 18 23C19.6349 23 21.088 22.215 22.0006 21L19 21C18.4477 21 18 20.5523 18 20C18 19.4477 18.4477 19 19 19H24C24.2652 19 24.5196 19.1054 24.7071 19.2929C24.8946 19.4804 25 19.7348 25 20V25C25 25.5523 24.5523 26 24 26C23.4477 26 23 25.5523 23 25V22.8987C21.7299 24.1951 19.9595 25 18 25C14.9506 25 12.359 23.0507 11.3986 20.3332C11.2145 19.8125 11.4874 19.2412 12.0082 19.0572Z" fill="white"/>
</svg>
